<svg xmlns="http://www.w3.org/2000/svg" xmlns:xlink="http://www.w3.org/1999/xlink" width="118" zoomAndPan="magnify" viewBox="0 0 88.5 30.000001" height="40" preserveAspectRatio="xMidYMid meet" version="1.0"><defs><g/><clipPath id="a560565679"><path d="M 1.183594 7 L 6 7 L 6 22 L 1.183594 22 Z M 1.183594 7 " clip-rule="nonzero"/></clipPath><clipPath id="786cfa09f9"><path d="M 74 7 L 86.832031 7 L 86.832031 22 L 74 22 Z M 74 7 " clip-rule="nonzero"/></clipPath><clipPath id="eeb0949026"><path d="M 75 7 L 86.832031 7 L 86.832031 22 L 75 22 Z M 75 7 " clip-rule="nonzero"/></clipPath><clipPath id="8b8a434720"><path d="M 75 8 L 86.832031 8 L 86.832031 23 L 75 23 Z M 75 8 " clip-rule="nonzero"/></clipPath></defs><g clip-path="url(#a560565679)"><g fill="#ffc1b2" fill-opacity="0.302"><g transform="translate(0.0819946, 21.76562)"><g><path d="M 4.878906 -1.242188 L 4.878906 -12.773438 C 4.878906 -13.113281 4.992188 -13.410156 5.21875 -13.664062 C 5.257812 -13.734375 5.257812 -13.804688 5.230469 -13.890625 C 5.1875 -13.972656 5.117188 -14.015625 5.035156 -14.015625 L 1.917969 -14.015625 C 1.820312 -14.015625 1.75 -13.972656 1.71875 -13.890625 C 1.679688 -13.804688 1.679688 -13.734375 1.734375 -13.664062 C 1.960938 -13.410156 2.085938 -13.113281 2.085938 -12.773438 L 2.085938 -1.242188 C 2.085938 -0.902344 1.960938 -0.605469 1.734375 -0.351562 C 1.679688 -0.269531 1.679688 -0.199219 1.71875 -0.113281 C 1.75 -0.0273438 1.820312 0 1.917969 0 L 5.035156 0 C 5.117188 0 5.1875 -0.0273438 5.230469 -0.113281 C 5.257812 -0.199219 5.257812 -0.269531 5.21875 -0.351562 C 5.105469 -0.464844 5.019531 -0.605469 4.964844 -0.761719 C 4.90625 -0.917969 4.878906 -1.070312 4.878906 -1.242188 Z M 4.878906 -1.242188 "/></g></g></g></g><g fill="#ffc1b2" fill-opacity="0.302"><g transform="translate(7.04333, 21.76562)"><g><path d="M 13.140625 -0.351562 L 13.128906 -0.367188 C 12.902344 -0.59375 12.804688 -0.875 12.804688 -1.210938 L 12.804688 -12.804688 C 12.804688 -13.128906 12.902344 -13.410156 13.128906 -13.648438 L 13.140625 -13.664062 C 13.183594 -13.734375 13.183594 -13.804688 13.15625 -13.890625 C 13.113281 -13.972656 13.042969 -14.015625 12.957031 -14.015625 L 9.84375 -14.015625 C 9.742188 -14.015625 9.671875 -13.972656 9.644531 -13.890625 C 9.601562 -13.804688 9.601562 -13.734375 9.660156 -13.664062 L 9.671875 -13.648438 C 9.882812 -13.410156 9.996094 -13.128906 9.996094 -12.804688 L 9.996094 -5.796875 C 9.996094 -5.738281 9.96875 -5.695312 9.914062 -5.683594 C 9.855469 -5.667969 9.8125 -5.683594 9.785156 -5.738281 L 5.371094 -13.15625 C 5.257812 -13.324219 5.289062 -13.496094 5.429688 -13.664062 C 5.472656 -13.734375 5.472656 -13.804688 5.441406 -13.890625 C 5.402344 -13.972656 5.328125 -14.015625 5.246094 -14.015625 L 4.863281 -14.015625 L 4.863281 -14 L 4.863281 -14.015625 L 1.917969 -14.015625 C 1.820312 -14.015625 1.75 -13.972656 1.71875 -13.890625 C 1.679688 -13.804688 1.679688 -13.734375 1.734375 -13.664062 C 1.960938 -13.410156 2.074219 -13.128906 2.074219 -12.816406 L 2.074219 -1.199219 C 2.074219 -0.875 1.960938 -0.59375 1.734375 -0.351562 C 1.679688 -0.269531 1.679688 -0.199219 1.71875 -0.113281 C 1.75 -0.0273438 1.820312 0 1.917969 0 L 5.035156 0 C 5.117188 0 5.1875 -0.0273438 5.230469 -0.113281 C 5.257812 -0.199219 5.257812 -0.269531 5.21875 -0.351562 L 5.1875 -0.378906 C 4.964844 -0.605469 4.863281 -0.886719 4.863281 -1.226562 L 4.863281 -8.21875 C 4.863281 -8.277344 4.878906 -8.304688 4.933594 -8.320312 C 4.992188 -8.332031 5.035156 -8.320312 5.078125 -8.277344 L 9.503906 -0.847656 C 9.589844 -0.664062 9.574219 -0.492188 9.449219 -0.351562 C 9.390625 -0.269531 9.390625 -0.199219 9.433594 -0.113281 C 9.460938 -0.0273438 9.53125 0 9.628906 0 L 12.957031 0 C 13.042969 0 13.113281 -0.0273438 13.15625 -0.113281 C 13.183594 -0.199219 13.183594 -0.269531 13.140625 -0.351562 Z M 13.140625 -0.351562 "/></g></g></g><g fill="#ffc1b2" fill-opacity="0.302"><g transform="translate(21.910164, 21.76562)"><g><path d="M 10.25 -14.355469 C 9.996094 -14.128906 9.714844 -14.015625 9.375 -14.015625 L 1.917969 -14.015625 C 1.820312 -14.015625 1.75 -13.972656 1.71875 -13.890625 C 1.679688 -13.804688 1.679688 -13.734375 1.734375 -13.664062 L 1.75 -13.648438 C 1.972656 -13.394531 2.085938 -13.097656 2.085938 -12.773438 L 2.085938 -1.226562 C 2.085938 -0.886719 1.972656 -0.605469 1.75 -0.351562 L 1.734375 -0.339844 C 1.679688 -0.253906 1.679688 -0.183594 1.71875 -0.113281 C 1.75 -0.0273438 1.820312 0 1.917969 0 L 5.035156 0 C 5.117188 0 5.1875 -0.0273438 5.230469 -0.113281 C 5.257812 -0.183594 5.257812 -0.253906 5.21875 -0.339844 C 4.992188 -0.59375 4.878906 -0.875 4.878906 -1.210938 L 4.878906 -5.316406 C 4.878906 -5.386719 4.90625 -5.457031 4.964844 -5.511719 C 5.019531 -5.570312 5.089844 -5.613281 5.175781 -5.613281 L 6.484375 -5.613281 C 6.824219 -5.613281 7.105469 -5.484375 7.347656 -5.257812 L 7.359375 -5.257812 C 7.429688 -5.203125 7.5 -5.203125 7.585938 -5.246094 C 7.671875 -5.273438 7.714844 -5.34375 7.714844 -5.441406 L 7.714844 -8.558594 C 7.714844 -8.644531 7.671875 -8.714844 7.585938 -8.757812 C 7.5 -8.796875 7.429688 -8.796875 7.359375 -8.742188 C 7.105469 -8.515625 6.824219 -8.402344 6.484375 -8.402344 L 5.175781 -8.402344 C 5.089844 -8.402344 5.019531 -8.433594 4.964844 -8.488281 C 4.90625 -8.546875 4.878906 -8.617188 4.878906 -8.699219 L 4.878906 -10.914062 C 4.878906 -11 4.90625 -11.070312 4.964844 -11.125 C 5.019531 -11.183594 5.089844 -11.210938 5.175781 -11.210938 L 9.375 -11.210938 C 9.714844 -11.210938 9.996094 -11.097656 10.25 -10.871094 C 10.320312 -10.816406 10.390625 -10.816406 10.476562 -10.859375 C 10.5625 -10.886719 10.605469 -10.957031 10.605469 -11.054688 L 10.605469 -14.171875 C 10.605469 -14.253906 10.5625 -14.328125 10.476562 -14.367188 C 10.390625 -14.398438 10.320312 -14.398438 10.25 -14.355469 Z M 10.25 -14.355469 "/></g></g></g><g fill="#ffc1b2" fill-opacity="0.302"><g transform="translate(33.366777, 21.76562)"><g><path d="M 10.265625 -14.113281 C 10.027344 -13.890625 9.742188 -13.789062 9.433594 -13.789062 L 1.917969 -13.789062 C 1.820312 -13.789062 1.75 -13.75 1.71875 -13.664062 C 1.679688 -13.578125 1.679688 -13.507812 1.734375 -13.4375 L 1.777344 -13.394531 C 2.003906 -13.140625 2.113281 -12.84375 2.113281 -12.507812 L 2.113281 -1.058594 C 2.113281 -0.886719 2.085938 -0.734375 2.03125 -0.578125 C 1.972656 -0.421875 1.890625 -0.28125 1.777344 -0.167969 L 1.734375 -0.125 C 1.679688 -0.0429688 1.679688 0.0273438 1.71875 0.113281 C 1.75 0.199219 1.820312 0.226562 1.917969 0.226562 L 9.433594 0.226562 C 9.742188 0.226562 10.027344 0.339844 10.265625 0.550781 C 10.335938 0.621094 10.421875 0.632812 10.503906 0.59375 C 10.589844 0.5625 10.644531 0.492188 10.644531 0.378906 L 10.644531 -2.765625 C 10.644531 -2.847656 10.605469 -2.917969 10.519531 -2.960938 C 10.433594 -2.988281 10.351562 -2.976562 10.292969 -2.917969 C 10.039062 -2.679688 9.742188 -2.566406 9.40625 -2.566406 L 5.257812 -2.566406 C 5.160156 -2.566406 5.078125 -2.59375 5.003906 -2.664062 C 4.933594 -2.722656 4.90625 -2.804688 4.90625 -2.917969 L 4.90625 -5.035156 C 4.90625 -5.132812 4.933594 -5.21875 5.003906 -5.289062 C 5.078125 -5.34375 5.160156 -5.386719 5.257812 -5.386719 L 6.5 -5.386719 C 6.839844 -5.386719 7.136719 -5.257812 7.390625 -5.035156 C 7.460938 -4.976562 7.53125 -4.976562 7.613281 -5.019531 C 7.699219 -5.0625 7.742188 -5.132812 7.742188 -5.21875 L 7.742188 -8.347656 C 7.742188 -8.433594 7.699219 -8.488281 7.613281 -8.53125 C 7.53125 -8.574219 7.460938 -8.574219 7.390625 -8.53125 C 7.136719 -8.292969 6.839844 -8.179688 6.5 -8.179688 L 5.257812 -8.179688 C 5.160156 -8.179688 5.078125 -8.207031 5.003906 -8.277344 C 4.933594 -8.332031 4.90625 -8.417969 4.90625 -8.53125 L 4.90625 -10.644531 C 4.90625 -10.746094 4.933594 -10.828125 5.003906 -10.898438 C 5.078125 -10.957031 5.160156 -11 5.257812 -11 L 9.40625 -11 C 9.742188 -11 10.039062 -10.871094 10.292969 -10.644531 C 10.351562 -10.574219 10.433594 -10.5625 10.519531 -10.605469 C 10.605469 -10.632812 10.644531 -10.703125 10.644531 -10.800781 L 10.644531 -13.960938 C 10.644531 -14.042969 10.589844 -14.113281 10.503906 -14.15625 C 10.421875 -14.183594 10.335938 -14.171875 10.265625 -14.113281 Z M 10.265625 -14.113281 "/></g></g></g><g fill="#ffc1b2" fill-opacity="0.302"><g transform="translate(45.69709, 21.76562)"><g><path d="M 11.535156 -0.351562 L 11.324219 -0.523438 C 11.097656 -0.703125 10.898438 -0.929688 10.746094 -1.183594 L 8.996094 -3.976562 C 8.941406 -4.0625 8.910156 -4.160156 8.941406 -4.273438 C 8.96875 -4.371094 9.023438 -4.457031 9.125 -4.527344 C 9.476562 -4.78125 9.785156 -5.0625 10.039062 -5.386719 C 10.421875 -5.851562 10.714844 -6.386719 10.914062 -6.980469 C 11.109375 -7.570312 11.222656 -8.191406 11.222656 -8.839844 C 11.222656 -9.488281 11.109375 -10.125 10.914062 -10.714844 C 10.714844 -11.308594 10.421875 -11.84375 10.039062 -12.324219 C 9.589844 -12.859375 9.039062 -13.28125 8.417969 -13.578125 C 7.785156 -13.859375 7.09375 -14.015625 6.359375 -14.015625 L 1.902344 -14.015625 C 1.804688 -14.015625 1.734375 -13.972656 1.707031 -13.890625 C 1.664062 -13.804688 1.679688 -13.734375 1.75 -13.664062 C 1.972656 -13.410156 2.101562 -13.113281 2.101562 -12.773438 L 2.101562 -1.210938 C 2.101562 -0.886719 1.988281 -0.605469 1.777344 -0.367188 C 1.691406 -0.28125 1.679688 -0.210938 1.71875 -0.125 C 1.75 -0.0429688 1.820312 0 1.933594 0 L 5.089844 0 C 5.175781 0 5.246094 -0.0273438 5.273438 -0.113281 C 5.300781 -0.199219 5.300781 -0.269531 5.246094 -0.351562 C 5.003906 -0.605469 4.894531 -0.886719 4.894531 -1.226562 L 4.894531 -3.285156 C 4.894531 -3.398438 4.921875 -3.496094 5.003906 -3.582031 C 5.089844 -3.667969 5.1875 -3.707031 5.300781 -3.707031 L 5.640625 -3.707031 C 5.78125 -3.707031 5.90625 -3.636719 5.992188 -3.511719 L 7.726562 -0.71875 C 7.796875 -0.59375 7.785156 -0.480469 7.699219 -0.367188 L 7.683594 -0.351562 C 7.628906 -0.269531 7.628906 -0.199219 7.671875 -0.113281 C 7.699219 -0.0273438 7.769531 0 7.867188 0 L 11.4375 0 C 11.535156 0 11.589844 -0.0429688 11.617188 -0.125 C 11.648438 -0.210938 11.617188 -0.28125 11.535156 -0.351562 Z M 7.882812 -7.164062 C 7.53125 -6.710938 7.023438 -6.5 6.359375 -6.5 L 5.300781 -6.5 C 5.1875 -6.5 5.089844 -6.527344 5.003906 -6.613281 C 4.921875 -6.699219 4.894531 -6.796875 4.894531 -6.910156 L 4.894531 -10.800781 C 4.894531 -10.914062 4.921875 -11.011719 5.003906 -11.097656 C 5.089844 -11.183594 5.1875 -11.222656 5.300781 -11.222656 L 6.359375 -11.222656 C 6.867188 -11.222656 7.246094 -11.109375 7.53125 -10.886719 C 7.8125 -10.660156 8.007812 -10.40625 8.148438 -10.125 C 8.277344 -9.84375 8.363281 -9.574219 8.390625 -9.320312 C 8.417969 -9.066406 8.433594 -8.898438 8.433594 -8.839844 C 8.433594 -8.503906 8.375 -8.191406 8.292969 -7.910156 C 8.191406 -7.628906 8.050781 -7.375 7.882812 -7.164062 Z M 7.882812 -7.164062 "/></g></g></g><g fill="#ffc1b2" fill-opacity="0.302"><g transform="translate(59.013822, 21.76562)"><g><path d="M 13.140625 -0.351562 L 13.128906 -0.367188 C 12.902344 -0.59375 12.804688 -0.875 12.804688 -1.210938 L 12.804688 -12.804688 C 12.804688 -13.128906 12.902344 -13.410156 13.128906 -13.648438 L 13.140625 -13.664062 C 13.183594 -13.734375 13.183594 -13.804688 13.15625 -13.890625 C 13.113281 -13.972656 13.042969 -14.015625 12.957031 -14.015625 L 9.84375 -14.015625 C 9.742188 -14.015625 9.671875 -13.972656 9.644531 -13.890625 C 9.601562 -13.804688 9.601562 -13.734375 9.660156 -13.664062 L 9.671875 -13.648438 C 9.882812 -13.410156 9.996094 -13.128906 9.996094 -12.804688 L 9.996094 -5.796875 C 9.996094 -5.738281 9.96875 -5.695312 9.914062 -5.683594 C 9.855469 -5.667969 9.8125 -5.683594 9.785156 -5.738281 L 5.371094 -13.15625 C 5.257812 -13.324219 5.289062 -13.496094 5.429688 -13.664062 C 5.472656 -13.734375 5.472656 -13.804688 5.441406 -13.890625 C 5.402344 -13.972656 5.328125 -14.015625 5.246094 -14.015625 L 4.863281 -14.015625 L 4.863281 -14 L 4.863281 -14.015625 L 1.917969 -14.015625 C 1.820312 -14.015625 1.75 -13.972656 1.71875 -13.890625 C 1.679688 -13.804688 1.679688 -13.734375 1.734375 -13.664062 C 1.960938 -13.410156 2.074219 -13.128906 2.074219 -12.816406 L 2.074219 -1.199219 C 2.074219 -0.875 1.960938 -0.59375 1.734375 -0.351562 C 1.679688 -0.269531 1.679688 -0.199219 1.71875 -0.113281 C 1.75 -0.0273438 1.820312 0 1.917969 0 L 5.035156 0 C 5.117188 0 5.1875 -0.0273438 5.230469 -0.113281 C 5.257812 -0.199219 5.257812 -0.269531 5.21875 -0.351562 L 5.1875 -0.378906 C 4.964844 -0.605469 4.863281 -0.886719 4.863281 -1.226562 L 4.863281 -8.21875 C 4.863281 -8.277344 4.878906 -8.304688 4.933594 -8.320312 C 4.992188 -8.332031 5.035156 -8.320312 5.078125 -8.277344 L 9.503906 -0.847656 C 9.589844 -0.664062 9.574219 -0.492188 9.449219 -0.351562 C 9.390625 -0.269531 9.390625 -0.199219 9.433594 -0.113281 C 9.460938 -0.0273438 9.53125 0 9.628906 0 L 12.957031 0 C 13.042969 0 13.113281 -0.0273438 13.15625 -0.113281 C 13.183594 -0.199219 13.183594 -0.269531 13.140625 -0.351562 Z M 13.140625 -0.351562 "/></g></g></g><g clip-path="url(#786cfa09f9)"><g fill="#ffc1b2" fill-opacity="0.302"><g transform="translate(73.880656, 21.76562)"><g><path d="M 10.660156 -11.816406 C 10.125 -12.519531 9.488281 -13.058594 8.785156 -13.4375 C 8.066406 -13.804688 7.316406 -14 6.527344 -14 C 5.738281 -14 4.976562 -13.804688 4.257812 -13.4375 C 3.539062 -13.058594 2.917969 -12.519531 2.382812 -11.816406 C 1.875 -11.152344 1.496094 -10.40625 1.242188 -9.589844 C 0.972656 -8.769531 0.847656 -7.894531 0.847656 -6.992188 C 0.847656 -6.089844 0.972656 -5.21875 1.242188 -4.398438 C 1.496094 -3.566406 1.875 -2.835938 2.382812 -2.1875 C 2.917969 -1.480469 3.539062 -0.929688 4.257812 -0.5625 C 4.976562 -0.183594 5.738281 0 6.527344 0 C 7.316406 0 8.066406 -0.183594 8.785156 -0.5625 C 9.488281 -0.929688 10.125 -1.480469 10.660156 -2.1875 C 11.167969 -2.835938 11.546875 -3.566406 11.816406 -4.398438 C 12.070312 -5.21875 12.210938 -6.089844 12.210938 -6.992188 C 12.210938 -7.894531 12.070312 -8.769531 11.816406 -9.589844 C 11.546875 -10.40625 11.167969 -11.152344 10.660156 -11.816406 Z M 6.527344 -2.792969 C 6.132812 -2.792969 5.753906 -2.90625 5.414062 -3.128906 C 5.0625 -3.355469 4.75 -3.652344 4.5 -4.03125 C 4.230469 -4.414062 4.019531 -4.863281 3.863281 -5.371094 C 3.707031 -5.878906 3.636719 -6.414062 3.636719 -6.992188 C 3.636719 -7.558594 3.707031 -8.109375 3.863281 -8.617188 C 4.019531 -9.125 4.230469 -9.558594 4.5 -9.953125 C 4.75 -10.335938 5.0625 -10.644531 5.414062 -10.871094 C 5.753906 -11.097656 6.132812 -11.210938 6.527344 -11.210938 C 6.921875 -11.210938 7.289062 -11.097656 7.640625 -10.871094 C 7.980469 -10.644531 8.292969 -10.335938 8.546875 -9.953125 C 8.796875 -9.558594 9.011719 -9.125 9.164062 -8.617188 C 9.320312 -8.109375 9.40625 -7.558594 9.40625 -6.992188 C 9.40625 -6.414062 9.320312 -5.878906 9.164062 -5.371094 C 9.011719 -4.863281 8.796875 -4.414062 8.546875 -4.03125 C 8.292969 -3.652344 7.980469 -3.355469 7.640625 -3.128906 C 7.289062 -2.90625 6.921875 -2.792969 6.527344 -2.792969 Z M 6.527344 -2.792969 "/></g></g></g></g><g fill="#ffc1b2" fill-opacity="0.502"><g transform="translate(0.455332, 21.924092)"><g><path d="M 4.878906 -1.242188 L 4.878906 -12.773438 C 4.878906 -13.113281 4.992188 -13.410156 5.21875 -13.664062 C 5.257812 -13.734375 5.257812 -13.804688 5.230469 -13.890625 C 5.1875 -13.972656 5.117188 -14.015625 5.035156 -14.015625 L 1.917969 -14.015625 C 1.820312 -14.015625 1.75 -13.972656 1.71875 -13.890625 C 1.679688 -13.804688 1.679688 -13.734375 1.734375 -13.664062 C 1.960938 -13.410156 2.085938 -13.113281 2.085938 -12.773438 L 2.085938 -1.242188 C 2.085938 -0.902344 1.960938 -0.605469 1.734375 -0.351562 C 1.679688 -0.269531 1.679688 -0.199219 1.71875 -0.113281 C 1.75 -0.0273438 1.820312 0 1.917969 0 L 5.035156 0 C 5.117188 0 5.1875 -0.0273438 5.230469 -0.113281 C 5.257812 -0.199219 5.257812 -0.269531 5.21875 -0.351562 C 5.105469 -0.464844 5.019531 -0.605469 4.964844 -0.761719 C 4.90625 -0.917969 4.878906 -1.070312 4.878906 -1.242188 Z M 4.878906 -1.242188 "/></g></g></g><g fill="#ffc1b2" fill-opacity="0.502"><g transform="translate(7.416667, 21.924092)"><g><path d="M 13.140625 -0.351562 L 13.128906 -0.367188 C 12.902344 -0.59375 12.804688 -0.875 12.804688 -1.210938 L 12.804688 -12.804688 C 12.804688 -13.128906 12.902344 -13.410156 13.128906 -13.648438 L 13.140625 -13.664062 C 13.183594 -13.734375 13.183594 -13.804688 13.15625 -13.890625 C 13.113281 -13.972656 13.042969 -14.015625 12.957031 -14.015625 L 9.84375 -14.015625 C 9.742188 -14.015625 9.671875 -13.972656 9.644531 -13.890625 C 9.601562 -13.804688 9.601562 -13.734375 9.660156 -13.664062 L 9.671875 -13.648438 C 9.882812 -13.410156 9.996094 -13.128906 9.996094 -12.804688 L 9.996094 -5.796875 C 9.996094 -5.738281 9.96875 -5.695312 9.914062 -5.683594 C 9.855469 -5.667969 9.8125 -5.683594 9.785156 -5.738281 L 5.371094 -13.15625 C 5.257812 -13.324219 5.289062 -13.496094 5.429688 -13.664062 C 5.472656 -13.734375 5.472656 -13.804688 5.441406 -13.890625 C 5.402344 -13.972656 5.328125 -14.015625 5.246094 -14.015625 L 4.863281 -14.015625 L 4.863281 -14 L 4.863281 -14.015625 L 1.917969 -14.015625 C 1.820312 -14.015625 1.75 -13.972656 1.71875 -13.890625 C 1.679688 -13.804688 1.679688 -13.734375 1.734375 -13.664062 C 1.960938 -13.410156 2.074219 -13.128906 2.074219 -12.816406 L 2.074219 -1.199219 C 2.074219 -0.875 1.960938 -0.59375 1.734375 -0.351562 C 1.679688 -0.269531 1.679688 -0.199219 1.71875 -0.113281 C 1.75 -0.0273438 1.820312 0 1.917969 0 L 5.035156 0 C 5.117188 0 5.1875 -0.0273438 5.230469 -0.113281 C 5.257812 -0.199219 5.257812 -0.269531 5.21875 -0.351562 L 5.1875 -0.378906 C 4.964844 -0.605469 4.863281 -0.886719 4.863281 -1.226562 L 4.863281 -8.21875 C 4.863281 -8.277344 4.878906 -8.304688 4.933594 -8.320312 C 4.992188 -8.332031 5.035156 -8.320312 5.078125 -8.277344 L 9.503906 -0.847656 C 9.589844 -0.664062 9.574219 -0.492188 9.449219 -0.351562 C 9.390625 -0.269531 9.390625 -0.199219 9.433594 -0.113281 C 9.460938 -0.0273438 9.53125 0 9.628906 0 L 12.957031 0 C 13.042969 0 13.113281 -0.0273438 13.15625 -0.113281 C 13.183594 -0.199219 13.183594 -0.269531 13.140625 -0.351562 Z M 13.140625 -0.351562 "/></g></g></g><g fill="#ffc1b2" fill-opacity="0.502"><g transform="translate(22.283501, 21.924092)"><g><path d="M 10.25 -14.355469 C 9.996094 -14.128906 9.714844 -14.015625 9.375 -14.015625 L 1.917969 -14.015625 C 1.820312 -14.015625 1.75 -13.972656 1.71875 -13.890625 C 1.679688 -13.804688 1.679688 -13.734375 1.734375 -13.664062 L 1.75 -13.648438 C 1.972656 -13.394531 2.085938 -13.097656 2.085938 -12.773438 L 2.085938 -1.226562 C 2.085938 -0.886719 1.972656 -0.605469 1.75 -0.351562 L 1.734375 -0.339844 C 1.679688 -0.253906 1.679688 -0.183594 1.71875 -0.113281 C 1.75 -0.0273438 1.820312 0 1.917969 0 L 5.035156 0 C 5.117188 0 5.1875 -0.0273438 5.230469 -0.113281 C 5.257812 -0.183594 5.257812 -0.253906 5.21875 -0.339844 C 4.992188 -0.59375 4.878906 -0.875 4.878906 -1.210938 L 4.878906 -5.316406 C 4.878906 -5.386719 4.90625 -5.457031 4.964844 -5.511719 C 5.019531 -5.570312 5.089844 -5.613281 5.175781 -5.613281 L 6.484375 -5.613281 C 6.824219 -5.613281 7.105469 -5.484375 7.347656 -5.257812 L 7.359375 -5.257812 C 7.429688 -5.203125 7.5 -5.203125 7.585938 -5.246094 C 7.671875 -5.273438 7.714844 -5.34375 7.714844 -5.441406 L 7.714844 -8.558594 C 7.714844 -8.644531 7.671875 -8.714844 7.585938 -8.757812 C 7.5 -8.796875 7.429688 -8.796875 7.359375 -8.742188 C 7.105469 -8.515625 6.824219 -8.402344 6.484375 -8.402344 L 5.175781 -8.402344 C 5.089844 -8.402344 5.019531 -8.433594 4.964844 -8.488281 C 4.90625 -8.546875 4.878906 -8.617188 4.878906 -8.699219 L 4.878906 -10.914062 C 4.878906 -11 4.90625 -11.070312 4.964844 -11.125 C 5.019531 -11.183594 5.089844 -11.210938 5.175781 -11.210938 L 9.375 -11.210938 C 9.714844 -11.210938 9.996094 -11.097656 10.25 -10.871094 C 10.320312 -10.816406 10.390625 -10.816406 10.476562 -10.859375 C 10.5625 -10.886719 10.605469 -10.957031 10.605469 -11.054688 L 10.605469 -14.171875 C 10.605469 -14.253906 10.5625 -14.328125 10.476562 -14.367188 C 10.390625 -14.398438 10.320312 -14.398438 10.25 -14.355469 Z M 10.25 -14.355469 "/></g></g></g><g fill="#ffc1b2" fill-opacity="0.502"><g transform="translate(33.740114, 21.924092)"><g><path d="M 10.265625 -14.113281 C 10.027344 -13.890625 9.742188 -13.789062 9.433594 -13.789062 L 1.917969 -13.789062 C 1.820312 -13.789062 1.75 -13.75 1.71875 -13.664062 C 1.679688 -13.578125 1.679688 -13.507812 1.734375 -13.4375 L 1.777344 -13.394531 C 2.003906 -13.140625 2.113281 -12.84375 2.113281 -12.507812 L 2.113281 -1.058594 C 2.113281 -0.886719 2.085938 -0.734375 2.03125 -0.578125 C 1.972656 -0.421875 1.890625 -0.28125 1.777344 -0.167969 L 1.734375 -0.125 C 1.679688 -0.0429688 1.679688 0.0273438 1.71875 0.113281 C 1.75 0.199219 1.820312 0.226562 1.917969 0.226562 L 9.433594 0.226562 C 9.742188 0.226562 10.027344 0.339844 10.265625 0.550781 C 10.335938 0.621094 10.421875 0.632812 10.503906 0.59375 C 10.589844 0.5625 10.644531 0.492188 10.644531 0.378906 L 10.644531 -2.765625 C 10.644531 -2.847656 10.605469 -2.917969 10.519531 -2.960938 C 10.433594 -2.988281 10.351562 -2.976562 10.292969 -2.917969 C 10.039062 -2.679688 9.742188 -2.566406 9.40625 -2.566406 L 5.257812 -2.566406 C 5.160156 -2.566406 5.078125 -2.59375 5.003906 -2.664062 C 4.933594 -2.722656 4.90625 -2.804688 4.90625 -2.917969 L 4.90625 -5.035156 C 4.90625 -5.132812 4.933594 -5.21875 5.003906 -5.289062 C 5.078125 -5.34375 5.160156 -5.386719 5.257812 -5.386719 L 6.5 -5.386719 C 6.839844 -5.386719 7.136719 -5.257812 7.390625 -5.035156 C 7.460938 -4.976562 7.53125 -4.976562 7.613281 -5.019531 C 7.699219 -5.0625 7.742188 -5.132812 7.742188 -5.21875 L 7.742188 -8.347656 C 7.742188 -8.433594 7.699219 -8.488281 7.613281 -8.53125 C 7.53125 -8.574219 7.460938 -8.574219 7.390625 -8.53125 C 7.136719 -8.292969 6.839844 -8.179688 6.5 -8.179688 L 5.257812 -8.179688 C 5.160156 -8.179688 5.078125 -8.207031 5.003906 -8.277344 C 4.933594 -8.332031 4.90625 -8.417969 4.90625 -8.53125 L 4.90625 -10.644531 C 4.90625 -10.746094 4.933594 -10.828125 5.003906 -10.898438 C 5.078125 -10.957031 5.160156 -11 5.257812 -11 L 9.40625 -11 C 9.742188 -11 10.039062 -10.871094 10.292969 -10.644531 C 10.351562 -10.574219 10.433594 -10.5625 10.519531 -10.605469 C 10.605469 -10.632812 10.644531 -10.703125 10.644531 -10.800781 L 10.644531 -13.960938 C 10.644531 -14.042969 10.589844 -14.113281 10.503906 -14.15625 C 10.421875 -14.183594 10.335938 -14.171875 10.265625 -14.113281 Z M 10.265625 -14.113281 "/></g></g></g><g fill="#ffc1b2" fill-opacity="0.502"><g transform="translate(46.070428, 21.924092)"><g><path d="M 11.535156 -0.351562 L 11.324219 -0.523438 C 11.097656 -0.703125 10.898438 -0.929688 10.746094 -1.183594 L 8.996094 -3.976562 C 8.941406 -4.0625 8.910156 -4.160156 8.941406 -4.273438 C 8.96875 -4.371094 9.023438 -4.457031 9.125 -4.527344 C 9.476562 -4.78125 9.785156 -5.0625 10.039062 -5.386719 C 10.421875 -5.851562 10.714844 -6.386719 10.914062 -6.980469 C 11.109375 -7.570312 11.222656 -8.191406 11.222656 -8.839844 C 11.222656 -9.488281 11.109375 -10.125 10.914062 -10.714844 C 10.714844 -11.308594 10.421875 -11.84375 10.039062 -12.324219 C 9.589844 -12.859375 9.039062 -13.28125 8.417969 -13.578125 C 7.785156 -13.859375 7.09375 -14.015625 6.359375 -14.015625 L 1.902344 -14.015625 C 1.804688 -14.015625 1.734375 -13.972656 1.707031 -13.890625 C 1.664062 -13.804688 1.679688 -13.734375 1.75 -13.664062 C 1.972656 -13.410156 2.101562 -13.113281 2.101562 -12.773438 L 2.101562 -1.210938 C 2.101562 -0.886719 1.988281 -0.605469 1.777344 -0.367188 C 1.691406 -0.28125 1.679688 -0.210938 1.71875 -0.125 C 1.75 -0.0429688 1.820312 0 1.933594 0 L 5.089844 0 C 5.175781 0 5.246094 -0.0273438 5.273438 -0.113281 C 5.300781 -0.199219 5.300781 -0.269531 5.246094 -0.351562 C 5.003906 -0.605469 4.894531 -0.886719 4.894531 -1.226562 L 4.894531 -3.285156 C 4.894531 -3.398438 4.921875 -3.496094 5.003906 -3.582031 C 5.089844 -3.667969 5.1875 -3.707031 5.300781 -3.707031 L 5.640625 -3.707031 C 5.78125 -3.707031 5.90625 -3.636719 5.992188 -3.511719 L 7.726562 -0.71875 C 7.796875 -0.59375 7.785156 -0.480469 7.699219 -0.367188 L 7.683594 -0.351562 C 7.628906 -0.269531 7.628906 -0.199219 7.671875 -0.113281 C 7.699219 -0.0273438 7.769531 0 7.867188 0 L 11.4375 0 C 11.535156 0 11.589844 -0.0429688 11.617188 -0.125 C 11.648438 -0.210938 11.617188 -0.28125 11.535156 -0.351562 Z M 7.882812 -7.164062 C 7.53125 -6.710938 7.023438 -6.5 6.359375 -6.5 L 5.300781 -6.5 C 5.1875 -6.5 5.089844 -6.527344 5.003906 -6.613281 C 4.921875 -6.699219 4.894531 -6.796875 4.894531 -6.910156 L 4.894531 -10.800781 C 4.894531 -10.914062 4.921875 -11.011719 5.003906 -11.097656 C 5.089844 -11.183594 5.1875 -11.222656 5.300781 -11.222656 L 6.359375 -11.222656 C 6.867188 -11.222656 7.246094 -11.109375 7.53125 -10.886719 C 7.8125 -10.660156 8.007812 -10.40625 8.148438 -10.125 C 8.277344 -9.84375 8.363281 -9.574219 8.390625 -9.320312 C 8.417969 -9.066406 8.433594 -8.898438 8.433594 -8.839844 C 8.433594 -8.503906 8.375 -8.191406 8.292969 -7.910156 C 8.191406 -7.628906 8.050781 -7.375 7.882812 -7.164062 Z M 7.882812 -7.164062 "/></g></g></g><g fill="#ffc1b2" fill-opacity="0.502"><g transform="translate(59.38716, 21.924092)"><g><path d="M 13.140625 -0.351562 L 13.128906 -0.367188 C 12.902344 -0.59375 12.804688 -0.875 12.804688 -1.210938 L 12.804688 -12.804688 C 12.804688 -13.128906 12.902344 -13.410156 13.128906 -13.648438 L 13.140625 -13.664062 C 13.183594 -13.734375 13.183594 -13.804688 13.15625 -13.890625 C 13.113281 -13.972656 13.042969 -14.015625 12.957031 -14.015625 L 9.84375 -14.015625 C 9.742188 -14.015625 9.671875 -13.972656 9.644531 -13.890625 C 9.601562 -13.804688 9.601562 -13.734375 9.660156 -13.664062 L 9.671875 -13.648438 C 9.882812 -13.410156 9.996094 -13.128906 9.996094 -12.804688 L 9.996094 -5.796875 C 9.996094 -5.738281 9.96875 -5.695312 9.914062 -5.683594 C 9.855469 -5.667969 9.8125 -5.683594 9.785156 -5.738281 L 5.371094 -13.15625 C 5.257812 -13.324219 5.289062 -13.496094 5.429688 -13.664062 C 5.472656 -13.734375 5.472656 -13.804688 5.441406 -13.890625 C 5.402344 -13.972656 5.328125 -14.015625 5.246094 -14.015625 L 4.863281 -14.015625 L 4.863281 -14 L 4.863281 -14.015625 L 1.917969 -14.015625 C 1.820312 -14.015625 1.75 -13.972656 1.71875 -13.890625 C 1.679688 -13.804688 1.679688 -13.734375 1.734375 -13.664062 C 1.960938 -13.410156 2.074219 -13.128906 2.074219 -12.816406 L 2.074219 -1.199219 C 2.074219 -0.875 1.960938 -0.59375 1.734375 -0.351562 C 1.679688 -0.269531 1.679688 -0.199219 1.71875 -0.113281 C 1.75 -0.0273438 1.820312 0 1.917969 0 L 5.035156 0 C 5.117188 0 5.1875 -0.0273438 5.230469 -0.113281 C 5.257812 -0.199219 5.257812 -0.269531 5.21875 -0.351562 L 5.1875 -0.378906 C 4.964844 -0.605469 4.863281 -0.886719 4.863281 -1.226562 L 4.863281 -8.21875 C 4.863281 -8.277344 4.878906 -8.304688 4.933594 -8.320312 C 4.992188 -8.332031 5.035156 -8.320312 5.078125 -8.277344 L 9.503906 -0.847656 C 9.589844 -0.664062 9.574219 -0.492188 9.449219 -0.351562 C 9.390625 -0.269531 9.390625 -0.199219 9.433594 -0.113281 C 9.460938 -0.0273438 9.53125 0 9.628906 0 L 12.957031 0 C 13.042969 0 13.113281 -0.0273438 13.15625 -0.113281 C 13.183594 -0.199219 13.183594 -0.269531 13.140625 -0.351562 Z M 13.140625 -0.351562 "/></g></g></g><g clip-path="url(#eeb0949026)"><g fill="#ffc1b2" fill-opacity="0.502"><g transform="translate(74.253994, 21.924092)"><g><path d="M 10.660156 -11.816406 C 10.125 -12.519531 9.488281 -13.058594 8.785156 -13.4375 C 8.066406 -13.804688 7.316406 -14 6.527344 -14 C 5.738281 -14 4.976562 -13.804688 4.257812 -13.4375 C 3.539062 -13.058594 2.917969 -12.519531 2.382812 -11.816406 C 1.875 -11.152344 1.496094 -10.40625 1.242188 -9.589844 C 0.972656 -8.769531 0.847656 -7.894531 0.847656 -6.992188 C 0.847656 -6.089844 0.972656 -5.21875 1.242188 -4.398438 C 1.496094 -3.566406 1.875 -2.835938 2.382812 -2.1875 C 2.917969 -1.480469 3.539062 -0.929688 4.257812 -0.5625 C 4.976562 -0.183594 5.738281 0 6.527344 0 C 7.316406 0 8.066406 -0.183594 8.785156 -0.5625 C 9.488281 -0.929688 10.125 -1.480469 10.660156 -2.1875 C 11.167969 -2.835938 11.546875 -3.566406 11.816406 -4.398438 C 12.070312 -5.21875 12.210938 -6.089844 12.210938 -6.992188 C 12.210938 -7.894531 12.070312 -8.769531 11.816406 -9.589844 C 11.546875 -10.40625 11.167969 -11.152344 10.660156 -11.816406 Z M 6.527344 -2.792969 C 6.132812 -2.792969 5.753906 -2.90625 5.414062 -3.128906 C 5.0625 -3.355469 4.75 -3.652344 4.5 -4.03125 C 4.230469 -4.414062 4.019531 -4.863281 3.863281 -5.371094 C 3.707031 -5.878906 3.636719 -6.414062 3.636719 -6.992188 C 3.636719 -7.558594 3.707031 -8.109375 3.863281 -8.617188 C 4.019531 -9.125 4.230469 -9.558594 4.5 -9.953125 C 4.75 -10.335938 5.0625 -10.644531 5.414062 -10.871094 C 5.753906 -11.097656 6.132812 -11.210938 6.527344 -11.210938 C 6.921875 -11.210938 7.289062 -11.097656 7.640625 -10.871094 C 7.980469 -10.644531 8.292969 -10.335938 8.546875 -9.953125 C 8.796875 -9.558594 9.011719 -9.125 9.164062 -8.617188 C 9.320312 -8.109375 9.40625 -7.558594 9.40625 -6.992188 C 9.40625 -6.414062 9.320312 -5.878906 9.164062 -5.371094 C 9.011719 -4.863281 8.796875 -4.414062 8.546875 -4.03125 C 8.292969 -3.652344 7.980469 -3.355469 7.640625 -3.128906 C 7.289062 -2.90625 6.921875 -2.792969 6.527344 -2.792969 Z M 6.527344 -2.792969 "/></g></g></g></g><g fill="#fffaef" fill-opacity="1"><g transform="translate(0.828669, 22.082564)"><g><path d="M 4.878906 -1.242188 L 4.878906 -12.773438 C 4.878906 -13.113281 4.992188 -13.410156 5.21875 -13.664062 C 5.257812 -13.734375 5.257812 -13.804688 5.230469 -13.890625 C 5.1875 -13.972656 5.117188 -14.015625 5.035156 -14.015625 L 1.917969 -14.015625 C 1.820312 -14.015625 1.75 -13.972656 1.71875 -13.890625 C 1.679688 -13.804688 1.679688 -13.734375 1.734375 -13.664062 C 1.960938 -13.410156 2.085938 -13.113281 2.085938 -12.773438 L 2.085938 -1.242188 C 2.085938 -0.902344 1.960938 -0.605469 1.734375 -0.351562 C 1.679688 -0.269531 1.679688 -0.199219 1.71875 -0.113281 C 1.75 -0.0273438 1.820312 0 1.917969 0 L 5.035156 0 C 5.117188 0 5.1875 -0.0273438 5.230469 -0.113281 C 5.257812 -0.199219 5.257812 -0.269531 5.21875 -0.351562 C 5.105469 -0.464844 5.019531 -0.605469 4.964844 -0.761719 C 4.90625 -0.917969 4.878906 -1.070312 4.878906 -1.242188 Z M 4.878906 -1.242188 "/></g></g></g><g fill="#fffaef" fill-opacity="1"><g transform="translate(7.790005, 22.082564)"><g><path d="M 13.140625 -0.351562 L 13.128906 -0.367188 C 12.902344 -0.59375 12.804688 -0.875 12.804688 -1.210938 L 12.804688 -12.804688 C 12.804688 -13.128906 12.902344 -13.410156 13.128906 -13.648438 L 13.140625 -13.664062 C 13.183594 -13.734375 13.183594 -13.804688 13.15625 -13.890625 C 13.113281 -13.972656 13.042969 -14.015625 12.957031 -14.015625 L 9.84375 -14.015625 C 9.742188 -14.015625 9.671875 -13.972656 9.644531 -13.890625 C 9.601562 -13.804688 9.601562 -13.734375 9.660156 -13.664062 L 9.671875 -13.648438 C 9.882812 -13.410156 9.996094 -13.128906 9.996094 -12.804688 L 9.996094 -5.796875 C 9.996094 -5.738281 9.96875 -5.695312 9.914062 -5.683594 C 9.855469 -5.667969 9.8125 -5.683594 9.785156 -5.738281 L 5.371094 -13.15625 C 5.257812 -13.324219 5.289062 -13.496094 5.429688 -13.664062 C 5.472656 -13.734375 5.472656 -13.804688 5.441406 -13.890625 C 5.402344 -13.972656 5.328125 -14.015625 5.246094 -14.015625 L 4.863281 -14.015625 L 4.863281 -14 L 4.863281 -14.015625 L 1.917969 -14.015625 C 1.820312 -14.015625 1.75 -13.972656 1.71875 -13.890625 C 1.679688 -13.804688 1.679688 -13.734375 1.734375 -13.664062 C 1.960938 -13.410156 2.074219 -13.128906 2.074219 -12.816406 L 2.074219 -1.199219 C 2.074219 -0.875 1.960938 -0.59375 1.734375 -0.351562 C 1.679688 -0.269531 1.679688 -0.199219 1.71875 -0.113281 C 1.75 -0.0273438 1.820312 0 1.917969 0 L 5.035156 0 C 5.117188 0 5.1875 -0.0273438 5.230469 -0.113281 C 5.257812 -0.199219 5.257812 -0.269531 5.21875 -0.351562 L 5.1875 -0.378906 C 4.964844 -0.605469 4.863281 -0.886719 4.863281 -1.226562 L 4.863281 -8.21875 C 4.863281 -8.277344 4.878906 -8.304688 4.933594 -8.320312 C 4.992188 -8.332031 5.035156 -8.320312 5.078125 -8.277344 L 9.503906 -0.847656 C 9.589844 -0.664062 9.574219 -0.492188 9.449219 -0.351562 C 9.390625 -0.269531 9.390625 -0.199219 9.433594 -0.113281 C 9.460938 -0.0273438 9.53125 0 9.628906 0 L 12.957031 0 C 13.042969 0 13.113281 -0.0273438 13.15625 -0.113281 C 13.183594 -0.199219 13.183594 -0.269531 13.140625 -0.351562 Z M 13.140625 -0.351562 "/></g></g></g><g fill="#fffaef" fill-opacity="1"><g transform="translate(22.656839, 22.082564)"><g><path d="M 10.25 -14.355469 C 9.996094 -14.128906 9.714844 -14.015625 9.375 -14.015625 L 1.917969 -14.015625 C 1.820312 -14.015625 1.75 -13.972656 1.71875 -13.890625 C 1.679688 -13.804688 1.679688 -13.734375 1.734375 -13.664062 L 1.75 -13.648438 C 1.972656 -13.394531 2.085938 -13.097656 2.085938 -12.773438 L 2.085938 -1.226562 C 2.085938 -0.886719 1.972656 -0.605469 1.75 -0.351562 L 1.734375 -0.339844 C 1.679688 -0.253906 1.679688 -0.183594 1.71875 -0.113281 C 1.75 -0.0273438 1.820312 0 1.917969 0 L 5.035156 0 C 5.117188 0 5.1875 -0.0273438 5.230469 -0.113281 C 5.257812 -0.183594 5.257812 -0.253906 5.21875 -0.339844 C 4.992188 -0.59375 4.878906 -0.875 4.878906 -1.210938 L 4.878906 -5.316406 C 4.878906 -5.386719 4.90625 -5.457031 4.964844 -5.511719 C 5.019531 -5.570312 5.089844 -5.613281 5.175781 -5.613281 L 6.484375 -5.613281 C 6.824219 -5.613281 7.105469 -5.484375 7.347656 -5.257812 L 7.359375 -5.257812 C 7.429688 -5.203125 7.5 -5.203125 7.585938 -5.246094 C 7.671875 -5.273438 7.714844 -5.34375 7.714844 -5.441406 L 7.714844 -8.558594 C 7.714844 -8.644531 7.671875 -8.714844 7.585938 -8.757812 C 7.5 -8.796875 7.429688 -8.796875 7.359375 -8.742188 C 7.105469 -8.515625 6.824219 -8.402344 6.484375 -8.402344 L 5.175781 -8.402344 C 5.089844 -8.402344 5.019531 -8.433594 4.964844 -8.488281 C 4.90625 -8.546875 4.878906 -8.617188 4.878906 -8.699219 L 4.878906 -10.914062 C 4.878906 -11 4.90625 -11.070312 4.964844 -11.125 C 5.019531 -11.183594 5.089844 -11.210938 5.175781 -11.210938 L 9.375 -11.210938 C 9.714844 -11.210938 9.996094 -11.097656 10.25 -10.871094 C 10.320312 -10.816406 10.390625 -10.816406 10.476562 -10.859375 C 10.5625 -10.886719 10.605469 -10.957031 10.605469 -11.054688 L 10.605469 -14.171875 C 10.605469 -14.253906 10.5625 -14.328125 10.476562 -14.367188 C 10.390625 -14.398438 10.320312 -14.398438 10.25 -14.355469 Z M 10.25 -14.355469 "/></g></g></g><g fill="#fffaef" fill-opacity="1"><g transform="translate(34.113452, 22.082564)"><g><path d="M 10.265625 -14.113281 C 10.027344 -13.890625 9.742188 -13.789062 9.433594 -13.789062 L 1.917969 -13.789062 C 1.820312 -13.789062 1.75 -13.75 1.71875 -13.664062 C 1.679688 -13.578125 1.679688 -13.507812 1.734375 -13.4375 L 1.777344 -13.394531 C 2.003906 -13.140625 2.113281 -12.84375 2.113281 -12.507812 L 2.113281 -1.058594 C 2.113281 -0.886719 2.085938 -0.734375 2.03125 -0.578125 C 1.972656 -0.421875 1.890625 -0.28125 1.777344 -0.167969 L 1.734375 -0.125 C 1.679688 -0.0429688 1.679688 0.0273438 1.71875 0.113281 C 1.75 0.199219 1.820312 0.226562 1.917969 0.226562 L 9.433594 0.226562 C 9.742188 0.226562 10.027344 0.339844 10.265625 0.550781 C 10.335938 0.621094 10.421875 0.632812 10.503906 0.59375 C 10.589844 0.5625 10.644531 0.492188 10.644531 0.378906 L 10.644531 -2.765625 C 10.644531 -2.847656 10.605469 -2.917969 10.519531 -2.960938 C 10.433594 -2.988281 10.351562 -2.976562 10.292969 -2.917969 C 10.039062 -2.679688 9.742188 -2.566406 9.40625 -2.566406 L 5.257812 -2.566406 C 5.160156 -2.566406 5.078125 -2.59375 5.003906 -2.664062 C 4.933594 -2.722656 4.90625 -2.804688 4.90625 -2.917969 L 4.90625 -5.035156 C 4.90625 -5.132812 4.933594 -5.21875 5.003906 -5.289062 C 5.078125 -5.34375 5.160156 -5.386719 5.257812 -5.386719 L 6.5 -5.386719 C 6.839844 -5.386719 7.136719 -5.257812 7.390625 -5.035156 C 7.460938 -4.976562 7.53125 -4.976562 7.613281 -5.019531 C 7.699219 -5.0625 7.742188 -5.132812 7.742188 -5.21875 L 7.742188 -8.347656 C 7.742188 -8.433594 7.699219 -8.488281 7.613281 -8.53125 C 7.53125 -8.574219 7.460938 -8.574219 7.390625 -8.53125 C 7.136719 -8.292969 6.839844 -8.179688 6.5 -8.179688 L 5.257812 -8.179688 C 5.160156 -8.179688 5.078125 -8.207031 5.003906 -8.277344 C 4.933594 -8.332031 4.90625 -8.417969 4.90625 -8.53125 L 4.90625 -10.644531 C 4.90625 -10.746094 4.933594 -10.828125 5.003906 -10.898438 C 5.078125 -10.957031 5.160156 -11 5.257812 -11 L 9.40625 -11 C 9.742188 -11 10.039062 -10.871094 10.292969 -10.644531 C 10.351562 -10.574219 10.433594 -10.5625 10.519531 -10.605469 C 10.605469 -10.632812 10.644531 -10.703125 10.644531 -10.800781 L 10.644531 -13.960938 C 10.644531 -14.042969 10.589844 -14.113281 10.503906 -14.15625 C 10.421875 -14.183594 10.335938 -14.171875 10.265625 -14.113281 Z M 10.265625 -14.113281 "/></g></g></g><g fill="#fffaef" fill-opacity="1"><g transform="translate(46.443765, 22.082564)"><g><path d="M 11.535156 -0.351562 L 11.324219 -0.523438 C 11.097656 -0.703125 10.898438 -0.929688 10.746094 -1.183594 L 8.996094 -3.976562 C 8.941406 -4.0625 8.910156 -4.160156 8.941406 -4.273438 C 8.96875 -4.371094 9.023438 -4.457031 9.125 -4.527344 C 9.476562 -4.78125 9.785156 -5.0625 10.039062 -5.386719 C 10.421875 -5.851562 10.714844 -6.386719 10.914062 -6.980469 C 11.109375 -7.570312 11.222656 -8.191406 11.222656 -8.839844 C 11.222656 -9.488281 11.109375 -10.125 10.914062 -10.714844 C 10.714844 -11.308594 10.421875 -11.84375 10.039062 -12.324219 C 9.589844 -12.859375 9.039062 -13.28125 8.417969 -13.578125 C 7.785156 -13.859375 7.09375 -14.015625 6.359375 -14.015625 L 1.902344 -14.015625 C 1.804688 -14.015625 1.734375 -13.972656 1.707031 -13.890625 C 1.664062 -13.804688 1.679688 -13.734375 1.75 -13.664062 C 1.972656 -13.410156 2.101562 -13.113281 2.101562 -12.773438 L 2.101562 -1.210938 C 2.101562 -0.886719 1.988281 -0.605469 1.777344 -0.367188 C 1.691406 -0.28125 1.679688 -0.210938 1.71875 -0.125 C 1.75 -0.0429688 1.820312 0 1.933594 0 L 5.089844 0 C 5.175781 0 5.246094 -0.0273438 5.273438 -0.113281 C 5.300781 -0.199219 5.300781 -0.269531 5.246094 -0.351562 C 5.003906 -0.605469 4.894531 -0.886719 4.894531 -1.226562 L 4.894531 -3.285156 C 4.894531 -3.398438 4.921875 -3.496094 5.003906 -3.582031 C 5.089844 -3.667969 5.1875 -3.707031 5.300781 -3.707031 L 5.640625 -3.707031 C 5.78125 -3.707031 5.90625 -3.636719 5.992188 -3.511719 L 7.726562 -0.71875 C 7.796875 -0.59375 7.785156 -0.480469 7.699219 -0.367188 L 7.683594 -0.351562 C 7.628906 -0.269531 7.628906 -0.199219 7.671875 -0.113281 C 7.699219 -0.0273438 7.769531 0 7.867188 0 L 11.4375 0 C 11.535156 0 11.589844 -0.0429688 11.617188 -0.125 C 11.648438 -0.210938 11.617188 -0.28125 11.535156 -0.351562 Z M 7.882812 -7.164062 C 7.53125 -6.710938 7.023438 -6.5 6.359375 -6.5 L 5.300781 -6.5 C 5.1875 -6.5 5.089844 -6.527344 5.003906 -6.613281 C 4.921875 -6.699219 4.894531 -6.796875 4.894531 -6.910156 L 4.894531 -10.800781 C 4.894531 -10.914062 4.921875 -11.011719 5.003906 -11.097656 C 5.089844 -11.183594 5.1875 -11.222656 5.300781 -11.222656 L 6.359375 -11.222656 C 6.867188 -11.222656 7.246094 -11.109375 7.53125 -10.886719 C 7.8125 -10.660156 8.007812 -10.40625 8.148438 -10.125 C 8.277344 -9.84375 8.363281 -9.574219 8.390625 -9.320312 C 8.417969 -9.066406 8.433594 -8.898438 8.433594 -8.839844 C 8.433594 -8.503906 8.375 -8.191406 8.292969 -7.910156 C 8.191406 -7.628906 8.050781 -7.375 7.882812 -7.164062 Z M 7.882812 -7.164062 "/></g></g></g><g fill="#fffaef" fill-opacity="1"><g transform="translate(59.760497, 22.082564)"><g><path d="M 13.140625 -0.351562 L 13.128906 -0.367188 C 12.902344 -0.59375 12.804688 -0.875 12.804688 -1.210938 L 12.804688 -12.804688 C 12.804688 -13.128906 12.902344 -13.410156 13.128906 -13.648438 L 13.140625 -13.664062 C 13.183594 -13.734375 13.183594 -13.804688 13.15625 -13.890625 C 13.113281 -13.972656 13.042969 -14.015625 12.957031 -14.015625 L 9.84375 -14.015625 C 9.742188 -14.015625 9.671875 -13.972656 9.644531 -13.890625 C 9.601562 -13.804688 9.601562 -13.734375 9.660156 -13.664062 L 9.671875 -13.648438 C 9.882812 -13.410156 9.996094 -13.128906 9.996094 -12.804688 L 9.996094 -5.796875 C 9.996094 -5.738281 9.96875 -5.695312 9.914062 -5.683594 C 9.855469 -5.667969 9.8125 -5.683594 9.785156 -5.738281 L 5.371094 -13.15625 C 5.257812 -13.324219 5.289062 -13.496094 5.429688 -13.664062 C 5.472656 -13.734375 5.472656 -13.804688 5.441406 -13.890625 C 5.402344 -13.972656 5.328125 -14.015625 5.246094 -14.015625 L 4.863281 -14.015625 L 4.863281 -14 L 4.863281 -14.015625 L 1.917969 -14.015625 C 1.820312 -14.015625 1.75 -13.972656 1.71875 -13.890625 C 1.679688 -13.804688 1.679688 -13.734375 1.734375 -13.664062 C 1.960938 -13.410156 2.074219 -13.128906 2.074219 -12.816406 L 2.074219 -1.199219 C 2.074219 -0.875 1.960938 -0.59375 1.734375 -0.351562 C 1.679688 -0.269531 1.679688 -0.199219 1.71875 -0.113281 C 1.75 -0.0273438 1.820312 0 1.917969 0 L 5.035156 0 C 5.117188 0 5.1875 -0.0273438 5.230469 -0.113281 C 5.257812 -0.199219 5.257812 -0.269531 5.21875 -0.351562 L 5.1875 -0.378906 C 4.964844 -0.605469 4.863281 -0.886719 4.863281 -1.226562 L 4.863281 -8.21875 C 4.863281 -8.277344 4.878906 -8.304688 4.933594 -8.320312 C 4.992188 -8.332031 5.035156 -8.320312 5.078125 -8.277344 L 9.503906 -0.847656 C 9.589844 -0.664062 9.574219 -0.492188 9.449219 -0.351562 C 9.390625 -0.269531 9.390625 -0.199219 9.433594 -0.113281 C 9.460938 -0.0273438 9.53125 0 9.628906 0 L 12.957031 0 C 13.042969 0 13.113281 -0.0273438 13.15625 -0.113281 C 13.183594 -0.199219 13.183594 -0.269531 13.140625 -0.351562 Z M 13.140625 -0.351562 "/></g></g></g><g clip-path="url(#8b8a434720)"><g fill="#fffaef" fill-opacity="1"><g transform="translate(74.627331, 22.082564)"><g><path d="M 10.660156 -11.816406 C 10.125 -12.519531 9.488281 -13.058594 8.785156 -13.4375 C 8.066406 -13.804688 7.316406 -14 6.527344 -14 C 5.738281 -14 4.976562 -13.804688 4.257812 -13.4375 C 3.539062 -13.058594 2.917969 -12.519531 2.382812 -11.816406 C 1.875 -11.152344 1.496094 -10.40625 1.242188 -9.589844 C 0.972656 -8.769531 0.847656 -7.894531 0.847656 -6.992188 C 0.847656 -6.089844 0.972656 -5.21875 1.242188 -4.398438 C 1.496094 -3.566406 1.875 -2.835938 2.382812 -2.1875 C 2.917969 -1.480469 3.539062 -0.929688 4.257812 -0.5625 C 4.976562 -0.183594 5.738281 0 6.527344 0 C 7.316406 0 8.066406 -0.183594 8.785156 -0.5625 C 9.488281 -0.929688 10.125 -1.480469 10.660156 -2.1875 C 11.167969 -2.835938 11.546875 -3.566406 11.816406 -4.398438 C 12.070312 -5.21875 12.210938 -6.089844 12.210938 -6.992188 C 12.210938 -7.894531 12.070312 -8.769531 11.816406 -9.589844 C 11.546875 -10.40625 11.167969 -11.152344 10.660156 -11.816406 Z M 6.527344 -2.792969 C 6.132812 -2.792969 5.753906 -2.90625 5.414062 -3.128906 C 5.0625 -3.355469 4.75 -3.652344 4.5 -4.03125 C 4.230469 -4.414062 4.019531 -4.863281 3.863281 -5.371094 C 3.707031 -5.878906 3.636719 -6.414062 3.636719 -6.992188 C 3.636719 -7.558594 3.707031 -8.109375 3.863281 -8.617188 C 4.019531 -9.125 4.230469 -9.558594 4.5 -9.953125 C 4.75 -10.335938 5.0625 -10.644531 5.414062 -10.871094 C 5.753906 -11.097656 6.132812 -11.210938 6.527344 -11.210938 C 6.921875 -11.210938 7.289062 -11.097656 7.640625 -10.871094 C 7.980469 -10.644531 8.292969 -10.335938 8.546875 -9.953125 C 8.796875 -9.558594 9.011719 -9.125 9.164062 -8.617188 C 9.320312 -8.109375 9.40625 -7.558594 9.40625 -6.992188 C 9.40625 -6.414062 9.320312 -5.878906 9.164062 -5.371094 C 9.011719 -4.863281 8.796875 -4.414062 8.546875 -4.03125 C 8.292969 -3.652344 7.980469 -3.355469 7.640625 -3.128906 C 7.289062 -2.90625 6.921875 -2.792969 6.527344 -2.792969 Z M 6.527344 -2.792969 "/></g></g></g></g></svg>